<svg width="24" height="24" viewBox="0 0 24 24" fill="none" xmlns="http://www.w3.org/2000/svg">
    <g clip-path="url(#clip0_39_474)">
        <mask id="mask0_39_474" style="mask-type:luminance" maskUnits="userSpaceOnUse" x="0" y="0" width="24" height="24">
            <path d="M24 0H0V24H24V0Z" fill="white"/>
        </mask>
        <g mask="url(#mask0_39_474)">
            <path d="M16.8503 0H7.14973C3.20735 0 0 3.20735 0 7.14973V16.8503C0 20.7926 3.20735 24 7.14973 24H16.8503C20.7926 24 24 20.7926 24 16.8503V7.14973C24 3.20735 20.7926 0 16.8503 0ZM21.5856 16.8503C21.5856 19.4655 19.4655 21.5856 16.8503 21.5856H7.14973C4.5345 21.5856 2.4144 19.4655 2.4144 16.8503V7.14973C2.4144 4.53446 4.5345 2.4144 7.14973 2.4144H16.8503C19.4655 2.4144 21.5856 4.53446 21.5856 7.14973V16.8503Z" fill="white"/>
            <path d="M12.0002 5.79688C8.57754 5.79688 5.79297 8.58144 5.79297 12.0041C5.79297 15.4267 8.57754 18.2113 12.0002 18.2113C15.4229 18.2113 18.2075 15.4268 18.2075 12.0041C18.2075 8.5814 15.4229 5.79688 12.0002 5.79688ZM12.0002 15.797C9.90547 15.797 8.20737 14.0989 8.20737 12.0041C8.20737 9.90938 9.90551 8.21127 12.0002 8.21127C14.095 8.21127 15.7931 9.90938 15.7931 12.0041C15.7931 14.0988 14.0949 15.797 12.0002 15.797Z" fill="white"/>
            <path d="M18.2179 7.32624C19.0393 7.32624 19.7052 6.66034 19.7052 5.8389C19.7052 5.01747 19.0393 4.35156 18.2179 4.35156C17.3965 4.35156 16.7305 5.01747 16.7305 5.8389C16.7305 6.66034 17.3965 7.32624 18.2179 7.32624Z" fill="white"/>
        </g>
    </g>
    <defs>
        <clipPath id="clip0_39_474">
            <rect width="24" height="24" fill="white"/>
        </clipPath>
    </defs>
</svg>
