<svg width="140" height="22" viewBox="0 0 140 22" fill="none" xmlns="http://www.w3.org/2000/svg">
    <path d="M29.3952 4.00292H25.4502C25.1525 4.00292 24.9108 4.24262 24.9108 4.53827V10.0848C24.9108 10.3805 25.1525 10.6202 25.4502 10.6202H29.3952C31.7568 10.6202 33.5507 9.31452 33.5507 7.35604C33.5507 5.21954 31.7568 4.00292 29.3952 4.00292ZM25.4502 14.1217C25.1525 14.1217 24.9108 14.3614 24.9108 14.657V20.8267C24.9108 21.1224 24.6695 21.3621 24.3715 21.3621H20.428C20.13 21.3621 19.8887 21.1224 19.8887 20.8267V0.769732C19.8887 0.474054 20.13 0.234375 20.428 0.234375H30.2024C35.135 0.234375 38.5731 3.14238 38.5731 7.35604C38.5731 10.0898 36.8385 12.3863 34.2416 13.3539C34.0755 13.4158 34.004 13.614 34.1003 13.7618L38.5132 20.536C38.7451 20.8922 38.4876 21.3621 38.0602 21.3621H33.7435C33.5501 21.3621 33.3716 21.2595 33.2756 21.0931L29.4012 14.3906C29.3049 14.2243 29.1267 14.1217 28.9333 14.1217H25.4502Z" fill="#1D82F5"/>
    <path d="M47.2775 7.60199C47.1702 7.32513 46.7562 7.4015 46.7562 7.69816V20.8267C46.7562 21.1224 46.5148 21.3621 46.2169 21.3621H42.3929C42.0949 21.3621 41.8535 21.1224 41.8535 20.8267V0.769732C41.8535 0.474054 42.0949 0.234375 42.3929 0.234375H48.0903C48.3133 0.234375 48.5131 0.370463 48.5935 0.576843L54.2462 15.104C54.3351 15.3327 54.6615 15.3322 54.7496 15.1032L60.3454 0.578502C60.4252 0.371239 60.6256 0.234375 60.8491 0.234375H66.6353C66.933 0.234375 67.1746 0.474054 67.1746 0.769732V20.8267C67.1746 21.1224 66.933 21.3621 66.6353 21.3621H62.811C62.5133 21.3621 62.2717 21.1224 62.2717 20.8267V7.69137C62.2717 7.39494 61.8583 7.3183 61.7507 7.59473L56.5157 21.0199C56.4354 21.2261 56.2355 21.3621 56.0128 21.3621H52.986C52.7629 21.3621 52.5628 21.2258 52.4827 21.0191L47.2775 7.60199Z" fill="#1D82F5"/>
    <path d="M14.014 10.894C14.014 12.6865 12.5502 14.1396 10.7441 14.1396C8.9384 14.1396 7.47461 12.6865 7.47461 10.894C7.47461 9.1015 8.9384 7.64844 10.7441 7.64844C12.5502 7.64844 14.014 9.1015 14.014 10.894Z" fill="#1D82F5"/>
    <path opacity="0.5" fill-rule="evenodd" clip-rule="evenodd" d="M9.82188 5.66079C8.65365 5.89225 7.58897 6.52922 6.81555 7.47795C6.04104 8.42784 5.60929 9.62923 5.60524 10.8782C5.6012 12.1271 6.02513 13.3315 6.7937 14.2868C7.5612 15.2408 8.6221 15.885 9.78871 16.1242C11.088 16.3906 12.4607 16.1246 13.5709 15.415C13.5944 15.4001 13.6186 15.3871 13.6437 15.3761C13.7616 15.3245 13.8956 15.3179 14.0151 15.3694C15.6088 16.0571 16.6509 17.276 16.9799 19.2642C17.0338 19.5901 16.8841 19.9149 16.6045 20.0939C16.3742 20.2413 16.1377 20.3803 15.8955 20.5105C14.3236 21.3553 12.578 21.7905 10.8159 21.7916C10.0948 21.7921 9.37099 21.7198 8.655 21.5729C6.19044 21.0677 3.98693 19.7145 2.41337 17.7586C0.840901 15.8038 -0.00803295 13.3658 5.72925e-05 10.8603C0.00814754 8.35492 0.872992 5.92236 2.45814 3.97789C4.04437 2.03224 6.25678 0.693557 8.72485 0.204616C9.41818 0.067243 10.1185 -0.000426266 10.8159 2.02016e-06C12.6022 0.00107273 14.3708 0.448497 15.9578 1.315C16.1784 1.43537 16.3941 1.56308 16.6045 1.69778C16.8841 1.87675 17.0335 2.20171 16.9826 2.52807C16.6813 4.45728 15.8162 5.34161 14.0399 6.37035C13.9066 6.44755 13.7454 6.45044 13.6057 6.39072C13.5809 6.38001 13.5563 6.36733 13.5331 6.35266C12.4393 5.66705 11.0969 5.40821 9.82188 5.66079Z" fill="#1D82F5"/>
    <path fill-rule="evenodd" clip-rule="evenodd" d="M13.643 15.3703C13.0958 15.732 12.4853 15.9866 11.8427 16.1184C10.5434 16.3848 9.17046 16.1188 8.06048 15.4092C7.92753 15.3243 7.76141 15.3011 7.61632 15.3636C6.02255 16.0513 4.98052 17.2702 4.65152 19.2584C4.59758 19.5843 4.74725 19.9091 5.0269 20.0881C5.25721 20.2355 5.49371 20.3745 5.73588 20.5047C7.30781 21.3494 9.05315 21.7849 10.8152 21.786C12.5775 21.7849 14.3229 21.3494 15.8948 20.5047C16.137 20.3745 16.3735 20.2355 16.6038 20.0881C16.8834 19.9091 17.0331 19.5843 16.9792 19.2584C16.6502 17.2702 15.6081 16.0513 14.0144 15.3636C13.8949 15.3121 13.7609 15.3187 13.643 15.3703Z" fill="#1D82F5"/>
    <path d="M68.3457 0.328125H127.88C128.403 0.328125 128.905 0.532949 129.279 0.898712L137.885 9.32099C138.687 10.1054 138.687 11.3954 137.885 12.1798L129.279 20.6021C128.905 20.9679 128.403 21.1727 127.88 21.1727H68.3457V0.328125Z" fill="#1D82F5"/>
    <path d="M81.4807 7.8225H78.2407V16.3125H75.7807V7.8225H72.5257V5.6625H81.4807V7.8225ZM82.6821 16.3125V5.6625H87.4821C87.9821 5.6625 88.4421 5.7675 88.8621 5.9775C89.2921 6.1775 89.6621 6.4525 89.9721 6.8025C90.2821 7.1425 90.5221 7.5275 90.6921 7.9575C90.8721 8.3875 90.9621 8.8225 90.9621 9.2625C90.9621 9.7025 90.8921 10.1225 90.7521 10.5225C90.6121 10.9125 90.4121 11.2675 90.1521 11.5875C89.8921 11.8975 89.5821 12.1525 89.2221 12.3525L91.5621 16.3125H88.8471L86.8071 12.8775H85.1421V16.3125H82.6821ZM85.1421 10.7325H87.3921C87.5921 10.7325 87.7671 10.6725 87.9171 10.5525C88.0771 10.4225 88.2071 10.2475 88.3071 10.0275C88.4071 9.8075 88.4571 9.5525 88.4571 9.2625C88.4571 8.9725 88.3971 8.7225 88.2771 8.5125C88.1671 8.2925 88.0271 8.1225 87.8571 8.0025C87.6871 7.8825 87.5071 7.8225 87.3171 7.8225H85.1421V10.7325ZM95.4159 5.6625H98.0709L101.731 16.3125H99.2109L98.3859 13.9275H95.0709L94.2609 16.3125H91.7409L95.4159 5.6625ZM97.9809 12.2325L96.7359 8.1375L95.4609 12.2325H97.9809ZM103.461 5.6625L105.966 13.4325L108.441 5.6625H111.036L107.166 16.3125H104.751L100.851 5.6625H103.461ZM119.508 14.1525V16.3125H112.023V5.6625H119.373V7.8225H114.483V9.8925H118.683V11.8875H114.483V14.1525H119.508ZM121.002 16.3125V5.6625H123.462V14.1525H128.622V16.3125H121.002Z" fill="white"/>
</svg>
