<svg width="24" height="25" viewBox="0 0 24 25" fill="none" xmlns="http://www.w3.org/2000/svg">
    <path d="M14.72 8.98531L10.43 13.2853L8.78 11.6353C8.69036 11.5306 8.58004 11.4456 8.45597 11.3856C8.33191 11.3256 8.19678 11.2918 8.05906 11.2865C7.92134 11.2812 7.78401 11.3044 7.65568 11.3547C7.52736 11.4049 7.41081 11.4812 7.31335 11.5786C7.2159 11.6761 7.13964 11.7927 7.08937 11.921C7.03909 12.0493 7.01589 12.1866 7.02121 12.3244C7.02653 12.4621 7.06026 12.5972 7.12028 12.7213C7.1803 12.8453 7.26532 12.9557 7.37 13.0453L9.72 15.4053C9.81344 15.498 9.92426 15.5713 10.0461 15.6211C10.1679 15.6708 10.2984 15.6961 10.43 15.6953C10.6923 15.6942 10.9437 15.59 11.13 15.4053L16.13 10.4053C16.2237 10.3123 16.2981 10.2017 16.3489 10.0799C16.3997 9.95803 16.4258 9.82732 16.4258 9.69531C16.4258 9.5633 16.3997 9.43259 16.3489 9.31073C16.2981 9.18887 16.2237 9.07827 16.13 8.98531C15.9426 8.79906 15.6892 8.69452 15.425 8.69452C15.1608 8.69452 14.9074 8.79906 14.72 8.98531ZM12 2.19531C10.0222 2.19531 8.08879 2.7818 6.4443 3.88061C4.79981 4.97943 3.51809 6.54121 2.76121 8.36848C2.00433 10.1957 1.8063 12.2064 2.19215 14.1462C2.578 16.086 3.53041 17.8678 4.92894 19.2664C6.32746 20.6649 8.10929 21.6173 10.0491 22.0032C11.9889 22.389 13.9996 22.191 15.8268 21.4341C17.6541 20.6772 19.2159 19.3955 20.3147 17.751C21.4135 16.1065 22 14.1731 22 12.1953C22 10.8821 21.7413 9.58173 21.2388 8.36848C20.7363 7.15522 19.9997 6.05283 19.0711 5.12424C18.1425 4.19566 17.0401 3.45906 15.8268 2.95651C14.6136 2.45397 13.3132 2.19531 12 2.19531ZM12 20.1953C10.4178 20.1953 8.87104 19.7261 7.55544 18.8471C6.23985 17.968 5.21447 16.7186 4.60897 15.2568C4.00347 13.795 3.84504 12.1864 4.15372 10.6346C4.4624 9.08274 5.22433 7.65728 6.34315 6.53846C7.46197 5.41964 8.88743 4.65771 10.4393 4.34903C11.9911 4.04035 13.5997 4.19877 15.0615 4.80427C16.5233 5.40978 17.7727 6.43515 18.6518 7.75075C19.5308 9.06634 20 10.613 20 12.1953C20 14.317 19.1572 16.3519 17.6569 17.8522C16.1566 19.3524 14.1217 20.1953 12 20.1953Z" fill="#12BF6C"/>
</svg>
