<svg width="42" height="35" viewBox="0 0 42 35" fill="none" xmlns="http://www.w3.org/2000/svg">
    <g filter="url(#filter0_d_39_527)">
        <g clip-path="url(#clip0_39_527)">
            <g clip-path="url(#clip1_39_527)">
                <g clip-path="url(#clip2_39_527)">
                    <mask id="mask0_39_527" style="mask-type:alpha" maskUnits="userSpaceOnUse" x="7" y="6" width="28" height="21">
                        <path d="M32.7 7.24219H9.3C8.35766 7.24219 7.59375 8.0061 7.59375 8.94844V24.5484C7.59375 25.4908 8.35766 26.2547 9.3 26.2547H32.7C33.6423 26.2547 34.4062 25.4908 34.4062 24.5484V8.94844C34.4062 8.0061 33.6423 7.24219 32.7 7.24219Z" fill="white" stroke="white" stroke-width="0.4875"/>
                    </mask>
                    <g mask="url(#mask0_39_527)">
                        <path fill-rule="evenodd" clip-rule="evenodd" d="M7.34961 20H34.6496V13.5H7.34961V20Z" fill="#0C47B7"/>
                        <path fill-rule="evenodd" clip-rule="evenodd" d="M7 14H35V7H7V14Z" fill="white"/>
                        <path fill-rule="evenodd" clip-rule="evenodd" d="M7.34961 26.5H34.6496V20H7.34961V26.5Z" fill="#E53B35"/>
                    </g>
                </g>
            </g>
        </g>
    </g>
    <defs>
        <filter id="filter0_d_39_527" x="0" y="0" width="42" height="35" filterUnits="userSpaceOnUse" color-interpolation-filters="sRGB">
            <feFlood flood-opacity="0" result="BackgroundImageFix"/>
            <feColorMatrix in="SourceAlpha" type="matrix" values="0 0 0 0 0 0 0 0 0 0 0 0 0 0 0 0 0 0 127 0" result="hardAlpha"/>
            <feOffset dy="1"/>
            <feGaussianBlur stdDeviation="4"/>
            <feComposite in2="hardAlpha" operator="out"/>
            <feColorMatrix type="matrix" values="0 0 0 0 0.584314 0 0 0 0 0.615686 0 0 0 0 0.647059 0 0 0 0.3 0"/>
            <feBlend mode="normal" in2="BackgroundImageFix" result="effect1_dropShadow_39_527"/>
            <feBlend mode="normal" in="SourceGraphic" in2="effect1_dropShadow_39_527" result="shape"/>
        </filter>
        <clipPath id="clip0_39_527">
            <rect x="8" y="7" width="26" height="19" rx="4" fill="white"/>
        </clipPath>
        <clipPath id="clip1_39_527">
            <rect width="28" height="19.5" fill="white" transform="translate(7 7)"/>
        </clipPath>
        <clipPath id="clip2_39_527">
            <rect width="27.3" height="19.5" fill="white" transform="translate(7.34961 7)"/>
        </clipPath>
    </defs>
</svg>
